<svg id="Layer_1" data-name="Layer 1" viewBox="0 0 538.73 516.94" version="1.1" xmlns="http://www.w3.org/2000/svg">
  <defs id="defs1">
    <style id="style1">
      .cls-1{fill:#e02643}.cls-3{fill:#5cbebc}
    </style>
  </defs>
  <path class="cls-1" id="polygon1" d="M20.09 155.6 483.34 40.63l55.39 476.31H73.5z"/>
  <path id="polygon2" style="fill:#fff" d="M0 137.29 428.81 0l70.34 483.9L50 479.66z"/>
  <path class="cls-3" d="m263.461 163.057 83.962-67.234c1.363 2.693 58.938 263.174 59.99 271.108a20 20 0 0 1-2.442-.344q-13.893-3.42-27.793-6.881c-23.727-5.842-47.459-11.744-71.208-17.406a4.87 4.87 0 0 1-4.141-4.374q-18.76-85.84-37.723-171.665Z" id="path2"/>
  <path d="m280.795 335.955-86.41-21.3-.676-3.056-16.685-75.798a4.43 4.43 0 0 1 1.78-5.168q32.352-25.778 64.673-51.668c.722-.57 1.52-1.075 2.47-1.75z" id="path3" style="fill:#5abebc"/>
  <path class="cls-1" d="m212.628 421.802-91.449 20.097-21.789-99.128a18 18 0 0 1 1.54-.512c12.047-2.645 24.076-5.452 36.162-7.944a55.54 55.54 0 0 1 61.487 30.522 54.4 54.4 0 0 1 3.99 11.17c3.327 14.32 6.307 28.707 9.47 43.076z" id="path4"/>
  <path class="cls-1" d="m96.106 328.564-15.93-72.307c.882-.278 1.656-.594 2.461-.778 11.304-2.477 22.586-5.076 33.912-7.452a37.21 37.21 0 0 1 22.997 70.331 31.2 31.2 0 0 1-6.166 2.13l-35.49 7.801a8 8 0 0 1-1.784.275" id="path5"/>
  <path class="cls-3" d="M187.747 126.475c15.14-3.84 32.495 6.312 35.96 23.5a30.38 30.38 0 1 1-59.513 12.215c-3.313-15.924 7.157-32.666 23.553-35.715" id="path6"/>
</svg>
